<svg version="1" xmlns="http://www.w3.org/2000/svg" width="1788" height="1788" viewBox="0 0 1341.000000 1341.000000"><path d="M996 583.9c-1 3.5-8.5 32.5-17.5 67.6-11.7 45.7-19.8 76.7-22.6 87.3-1.1 4-1.7 7.7-1.4 8.2.3.4.1 1-.4 1.2-.5.1-1.2 1.9-1.6 3.9l-.7 3.7 26.3-.2 26.3-.1 4.7-18c2.6-9.9 9.2-35.8 14.9-57.5 5.6-21.7 11.2-43.6 12.5-48.5 5.9-22.2 12.5-48.8 12.5-49.9 0-1-5.7-1.3-26-1.3l-26 .1-1 3.5zM332 584.9c-9.5 2.2-14.9 5-19.3 10.1-6.4 7.6-6.5 8.1-6.6 72.1-.1 38.6.2 59.4 1 62.8 1.7 7.9 6.4 14 13.7 17.7 11 5.5 15.7 5.9 80.1 5.9h58.3l7.9-22.8c4.3-12.5 7.5-22.7 7.1-22.8-.4-.1-19.6-.2-42.7-.4-23.1-.1-43.5-.3-45.2-.4-6.3-.2-6.5-.9-6.4-39.1 0-21.5.4-34.7 1.1-36 .6-1.1 2.6-2.2 4.8-2.6 2-.4 22-.7 44.5-.7 22.4 0 40.7-.3 40.7-.6s-2.8-10.6-6.2-22.9l-6.3-22.2-59.5.1c-52.1.1-60.4.3-67 1.8zM544.3 598.2c-2.9 8.4-9.1 26.5-13.8 40.3-4.8 13.7-9.7 28.1-10.9 32-1.3 3.8-7.2 20.9-13.1 38-5.8 17-10.8 31.4-10.9 32-.2.5-.6 1.7-.9 2.5-.4.8-1.3 3.4-2.1 5.8-1.3 4.1-1.3 4.2.8 4.6 1.1.3 18.3.4 38.1.3l35.9-.2 2.6-9 2.6-9 29.6-.1h29.6l2.4 9 2.3 9.1 36 .2c19.8.1 37 0 38.1-.3 2.1-.4 2.1-.5.7-4.6-.8-2.4-5.7-16.5-10.8-31.3-5.1-14.9-10.9-31.7-13-37.5-2-5.8-5.2-15-7-20.5-1.9-5.5-7-20.6-11.5-33.5-4.5-12.9-9.6-27.8-11.3-33l-3.3-9.5-52.5-.3-52.4-.2-5.2 15.2zm62.6 49.6c2.4 8.6 6.1 21.8 8.2 29.2 6 21.5 5.8 20.8 4.6 21.2-1.6.5-35.7.2-36.1-.3-.3-.2.9-5.1 2.5-10.9 1.7-5.8 3.2-11.2 3.4-12 .2-.8 2.4-8.9 5-18s5.1-18.4 5.7-20.8c.5-2.3 1.3-4.2 1.6-4.2.4 0 2.7 7.1 5.1 15.8zM736.8 583.7c-.3.7-.2 165.7.1 168.9.1.7 11.7 1 37.9 1l37.7-.1.1-25.8c.1-14.2.4-26 .8-26.4.9-.9 12.4-.3 15.3.8 1.3.5 3.2 1.7 4.2 2.6 1.7 1.7 20.1 39.5 20.1 41.4 0 .5.5.9 1 .9.6 0 .9.3.8.7-.4 1.5 1.4 5.3 2.5 5.5 4 .5 80.7.3 80.7-.2 0-.8-7.7-17.2-18.1-38.7-5.9-12.2-7.5-14.7-11.1-17.4-3.9-2.8-5-4.3-3-4.5 2.8-.2 8.4-2 12.2-3.9 5.4-2.8 9-6.5 12.1-12.4 2.2-4.2 2.2-5.4 2.3-31.5.1-14.9-.2-29.4-.7-32.1-2.6-15.5-11.3-23.5-29.6-27.5-8.2-1.8-13.8-2-86.9-2-42.9 0-78.2.3-78.4.7zm115 43.2c1.3 0 3.7 1.4 5.3 3 2.8 2.9 2.9 3.2 2.9 13.1 0 17.5-1.2 18.3-28.5 18.5-9.9.1-18.5 0-19.1-.2-.7-.2-1-6.2-.8-17.6.1-9.5.2-17.2.3-17.2.8-.1 38.2.3 39.9.4zM265 600.2c-4.1 1.5-11.5 4.2-16.5 5.9-4.9 1.8-10.1 3.7-11.5 4.2-1.4.6-2.9 1.1-3.5 1.3-.5.2-2.8 1-5 1.8s-8.9 3.2-15 5.4c-6 2.2-19.8 7.2-30.5 11-10.7 3.9-25.7 9.3-33.4 12.1-7.6 2.8-14.1 5.3-14.5 5.6-.3.4-.6 9.9-.7 21.1-.1 17.9.1 20.6 1.5 21.3.9.5 7.9 3.1 15.6 5.9 32.2 11.6 62.6 22.5 88 31.6 14.9 5.4 28 10.1 29.3 10.7 4.8 1.9 4.7 2.2 4.7-21.2-.1-18.3-.3-22.2-1.5-22.9-.8-.4-14.3-4.7-30-9.4-34.9-10.6-51-15.7-51-16.2 0-.2 3.3-1.3 7.3-2.5 3.9-1.1 12.2-3.6 18.2-5.4 11.1-3.4 19.7-5.9 40.5-12.1 6.3-1.9 12.6-3.8 14-4.2l2.4-.7.1-22.4c0-12.2-.2-22.6-.5-23-.3-.4-3.9.5-8 2.1zM1073.7 598.4c-.3.9-.1 42.3.2 44.7.1.4 1.8 1.1 3.9 1.7 9.5 2.6 78.6 23.3 78.9 23.6.3.2-41 13-72.9 22.6-4.8 1.4-9 2.9-9.4 3.3-.7.6-1.2 44.6-.5 45.2.2.2 1.1 0 2-.5.9-.4 5.4-2.2 10.1-3.9 26.7-9.5 82.2-29.4 86.5-31.1 2.8-1 12.2-4.4 21-7.5 8.8-3.2 16.7-6.1 17.6-6.6 1.4-.7 1.6-3.5 1.5-21.6l-.1-20.8-12-4.3c-6.6-2.4-12.8-4.7-13.7-5.3-1-.5-2.5-.9-3.3-.9-.8 0-2.3-.5-3.3-1-.9-.6-9.3-3.7-18.7-7.1-9.3-3.3-19.2-6.9-22-7.9-2.7-1.1-15.8-5.8-29-10.5s-26.8-9.7-30.2-10.9c-4.2-1.6-6.3-2-6.6-1.2z"/></svg>